<svg version="1.2" xmlns="http://www.w3.org/2000/svg" viewBox="0 0 100 100" width="100" height="100">
	<title>New Project</title>
	<style>
		.s0 { fill: #101010 } 
		.s1 { fill: #ffffff } 
	</style>
	<path id="Layer 2" class="s0" d="m5 30c0-13.8 11.2-25 25-25h40c13.8 0 25 11.2 25 25v40c0 13.8-11.2 25-25 25h-40c-13.8 0-25-11.2-25-25z"/>
	<path id="s." class="s1" aria-label="s."  d="m40.8 46.2q-1.1 0-2.3 0.3-1.1 0.3-2.1 0.8-0.9 0.6-1.5 1.4-0.6 0.8-0.6 2 0 1.7 1.5 2.6 1.6 0.8 5.3 1.1 3.9 0.3 6 1.9 2.2 1.7 2.2 5 0 2.2-1 4-0.9 1.8-2.6 3-1.6 1.2-4 1.9-2.2 0.6-5 0.6-2.7 0-4.7-0.7-1.9-0.8-3.1-2-1.3-1.2-1.9-2.7-0.5-1.6-0.5-3.2 0-0.3 0-0.6 0-0.3 0.1-0.6l4.2-0.5q-0.1 0.4-0.1 0.5 0 0.1 0 0.4 0 1.1 0.3 2.2 0.4 0.9 1.2 1.7 0.8 0.7 2.1 1.1 1.3 0.5 3.2 0.5 1.3 0 2.6-0.3 1.3-0.3 2.4-0.9 1.1-0.7 1.8-1.6 0.7-1 0.7-2.3 0-2.1-1.8-2.8-1.6-0.8-5-1-3.8-0.3-6-1.9-2.2-1.5-2.2-4.9 0-1.9 0.8-3.5 0.8-1.6 2.3-2.8 1.5-1.1 3.6-1.8 2.1-0.6 4.6-0.6 2.5 0 4.3 0.7 1.8 0.6 2.9 1.7 1.2 1.1 1.8 2.5 0.6 1.3 0.6 2.8v0.6l-4.2 0.6v-0.2q0-0.2 0-0.2 0.1-0.1 0.1-0.2 0-2.1-1.6-3.3-1.5-1.3-4.4-1.3zm24.9 20.8q0-1.6 1.1-2.7 1.1-1.1 2.7-1.1 1.6 0 2.6 1.1 1.2 1.1 1.2 2.7 0 1.5-1.2 2.7-1 1.1-2.6 1.1-1.6 0-2.7-1.1-1.1-1.2-1.1-2.7z"/>
</svg>